#!OML:ASF E:\Mandelcareful walks\Project 1\Capture day 1\Session 1\Subject1.ASF
:FULLY-SPECIFIED
:DEGREES
563
root 7.62409 16.4786 -0.709631 -147.299 100.465 -164.563
lowerback 8.50382 0.499303 -3.19536
upperback 2.96916 0.46662 -0.392004
thorax -1.71173 0.25661 1.3442
lowerneck -26.9944 5.98436 0.523588
upperneck 22.6663 11.4717 -10.1883
head 12.7591 3.79746 -1.80445
rclavicle 1.87852e-014 2.98177e-015
rhumerus -31.24 13.289 -83.7832
rradius 52.3512
rwrist -26.4331
rhand -13.4611 -32.1467
rfingers 7.12502
rthumb 12.6487 -61.7437
lclavicle 1.87852e-014 2.98177e-015
lhumerus -33.9134 -8.53549 85.5425
lradius 48.7326
lwrist 7.05974
lhand -14.3208 -10.4319
lfingers 7.12502
lthumb 11.8198 19.2145
rfemur -34.0976 -8.37413 14.1577
rtibia 37.5771
rfoot -17.6198 -9.50386
rtoes -4.60668
lfemur -25.6328 2.02752 -8.48507
ltibia 28.6646
lfoot -14.7724 14.0401
ltoes -17.6843
564
root 7.62605 16.4679 -0.646507 -146.571 100.206 -163.839
lowerback 8.4975 0.525989 -2.84706
upperback 3.09759 0.536501 -0.396854
thorax -1.57645 0.290886 1.13738
lowerneck -27.3776 6.05749 0.668664
upperneck 22.909 11.6581 -10.4632
head 12.978 3.82891 -1.89033
rclavicle 8.44835e-015 1.37161e-014
rhumerus -31.0312 12.4461 -82.9419
rradius 52.5105
rwrist -26.4961
rhand -14.5381 -31.6007
rfingers 7.12502
rthumb 11.6102 -61.2591
lclavicle 8.44835e-015 1.37161e-014
lhumerus -33.9738 -8.14877 85.7245
lradius 48.0191
lwrist 7.18908
lhand -15.3155 -10.8346
lfingers 7.12502
lthumb 10.8605 18.8646
rfemur -34.1596 -8.41497 14.3558
rtibia 37.8906
rfoot -17.9199 -9.61978
rtoes -4.03578
lfemur -25.8839 2.54877 -8.47165
ltibia 28.8963
lfoot -14.6361 13.876
ltoes -17.8166
565
root 7.6285 16.4587 -0.59324 -145.901 99.9263 -163.169
lowerback 8.55351 0.570293 -2.43091
upperback 3.27653 0.635187 -0.426713
thorax -1.42265 0.341097 0.863816
lowerneck -27.9472 6.09936 0.609264
upperneck 23.0948 11.7975 -10.4947
head 13.1736 3.84757 -1.85634
rclavicle -3.18055e-015 1.8487e-014
rhumerus -30.5116 11.6099 -82.1443
rradius 52.4268
rwrist -26.6844
rhand -15.0057 -33.3747
rfingers 7.12502
rthumb 11.1593 -63.058
lclavicle -3.18055e-015 1.8487e-014
lhumerus -33.8463 -7.93765 85.859
lradius 47.4353
lwrist 7.5325
lhand -15.9612 -10.408
lfingers 7.12502
lthumb 10.2376 19.3229
rfemur -34.2314 -8.43951 14.5331
rtibia 38.1963
rfoot -18.1666 -9.8125
rtoes -3.6921
lfemur -26.2489 3.01679 -8.46293
ltibia 29.2893
lfoot -14.5342 13.8398
ltoes -17.8829
566
root 7.63096 16.4506 -0.544979 -145.038 99.7175 -162.262
lowerback 8.64033 0.536378 -2.38629
upperback 3.22543 0.592348 -0.25606
thorax -1.52335 0.319969 1.01791
lowerneck -27.4534 6.19012 0.508727
upperneck 23.0619 12.0439 -10.7281
head 13.0991 3.94167 -1.88668
rclavicle 2.98177e-016 -1.27222e-014
rhumerus -30.4222 11.4364 -81.3429
rradius 52.3958
rwrist -26.8596
rhand -15.519 -34.2963
rfingers 7.12502
rthumb 10.6642 -64.0057
lclavicle 2.98177e-016 -1.27222e-014
lhumerus -34.3605 -7.34665 86.187
lradius 47.061
lwrist 8.30975
lhand -16.2092 -9.46551
lfingers 7.12502
lthumb 9.99833 20.277
rfemur -34.2819 -8.48901 14.6294
rtibia 38.5079
rfoot -18.3958 -9.98484
rtoes -3.8807
lfemur -26.625 3.63604 -8.58297
ltibia 29.7807
lfoot -14.4613 13.7075
ltoes -17.789
567
root 7.62852 16.4415 -0.503217 -143.064 99.29 -160.158
lowerback 8.88694 0.447918 -2.2529
upperback 3.34675 0.488784 -0.171453
thorax -1.53 0.270255 1.03928
lowerneck -27.8015 6.45247 0.769565
upperneck 23.4357 12.5962 -11.3185
head 13.4383 4.09504 -2.03913
rclavicle -7.35503e-015 -5.56597e-015
rhumerus -30.1673 11.1672 -80.6038
rradius 52.4475
rwrist -26.9191
rhand -16.1924 -34.4997
rfingers 7.12502
rthumb 10.0145 -64.2414
lclavicle -7.35503e-015 -5.56597e-015
lhumerus -34.495 -7.32551 86.4263
lradius 46.6798
lwrist 9.42007
lhand -16.8586 -9.23039
lfingers 7.12502
lthumb 9.37179 20.5413
rfemur -34.2361 -8.85896 14.6595
rtibia 38.8854
rfoot -18.6838 -10.1132
rtoes -4.1039
lfemur -27.1164 4.47182 -8.92377
ltibia 30.3836
lfoot -14.1423 13.3532
ltoes -18.2774
568
root 7.63099 16.431 -0.475922 -139.966 98.5624 -156.674
lowerback 9.36177 0.275818 -1.79502
upperback 3.63108 0.305615 -0.223794
thorax -1.48906 0.185723 0.745054
lowerneck -28.1186 6.52011 0.793087
upperneck 23.5782 12.8016 -11.5457
head 13.6022 4.13542 -2.08368
rclavicle -1.96797e-014 2.38542e-015
rhumerus -29.8684 10.8683 -80.0827
rradius 52.6266
rwrist -26.8473
rhand -17.0224 -35.1859
rfingers 7.12502
rthumb 9.21368 -64.9646
lclavicle -1.96797e-014 2.38542e-015
lhumerus -34.5249 -7.84846 86.5956
lradius 46.401
lwrist 10.4801
lhand -17.6424 -9.03665
lfingers 7.12502
lthumb 8.61541 20.7676
rfemur -33.8391 -9.55534 14.6124
rtibia 39.2931
rfoot -19.0917 -10.204
rtoes -3.90511
lfemur -27.5268 5.10729 -9.35406
ltibia 31.1155
lfoot -13.8762 13.1311
ltoes -18.4656
